<svg width="950" height="270" version="1.1" viewBox="0 0 950 270" xml:space="preserve" xmlns="http://www.w3.org/2000/svg"><rect width="950" height="270" ry="0" fill="#fff" stop-color="#000000" stroke-width="1.4985"/><g transform="matrix(.3088 0 0 .30847 -1.2603 -23.049)"><g stroke-width="1.1442"><rect x="203.5" y="497" width="105" height="30" ry="15" stop-color="#ffffff"/><rect transform="rotate(90)" x="203.5" y="-527" width="105" height="30" ry="15" stop-color="#ffffff"/><rect x="715.5" y="497" width="105" height="30" ry="15" stop-color="#ffffff"/></g><path d="m512 341.06c-94.408-2.8e-4 -170.94 76.533-170.94 170.94 0.0129 41.294 14.974 81.188 42.117 112.31 2.7319 3.4504 5.6108 6.927 8.6758 10.451 17.48 20.098 25.883 32.618 36.609 54.547 3.2565 6.6571 5.4294 10.69 7.3809 13.689 0.97322 1.9845 2.4454 3.7445 4.2812 5.1934 0.0648 0.0515 0.13582 0.10423 0.20117 0.1543 3.2017 2.4511 7.4653 3.957 12.176 3.957h118.93c4.6119 0 8.7942-1.4443 11.973-3.8047 0.21317-0.15406 0.44133-0.32345 0.64844-0.49218 0.21908-0.1794 0.42303-0.37007 0.63085-0.5586 0.3033-0.27873 0.61293-0.56638 0.91211-0.89062 0.39107-0.41568 0.75441-0.84926 1.0918-1.2988 0.16162-0.20862 0.338-0.46508 0.50195-0.69141 0.0875-0.13194 0.16525-0.26798 0.24805-0.40234 2.1171-3.0081 4.4633-7.4059 8.1074-14.855 10.727-21.929 19.13-34.449 36.609-54.547 3.065-3.5242 5.9439-7.0008 8.6758-10.451 27.143-31.12 42.104-71.014 42.117-112.31 2.8e-4 -94.408-76.533-170.94-170.94-170.94zm-56.5 396.94c-8.31 0-15 6.69-15 15s6.69 15 15 15h55.463c0.54775-1e-5 0.47909 4e-3 1.0371 4e-3s0.48936-4e-3 1.0371-4e-3h55.463c8.31 0 15-6.69 15-15s-6.69-15-15-15zm56.5 55.986c-1.0258 0-1.2935 0.0151-2.2891 0.0156h-49.961c-8.033 0-14.5 6.467-14.5 14.5s6.467 14.5 14.5 14.5h3.0742c2.7797 0.0223 3.1578 0.40953 3.7656 3.8828 2.3684 13.536 10.967 24.511 22.611 28.861 9.7429 3.6398 32.178 4.0484 43.105 0.78516 12.979-3.876 22.578-15.213 25.104-29.646 0.60777-3.4733 0.98594-3.8606 3.7656-3.8828h3.0742c8.033 0 14.5-6.467 14.5-14.5s-6.467-14.5-14.5-14.5h-49.961c-0.99554-5.5e-4 -1.2633-0.0156-2.2891-0.0156z" stroke-width="1.0179"/><circle cx="256" cy="256" r="90" stop-color="#ffffff" stroke-width=".97758"/><g fill="#fff" stroke-width=".80911"><rect transform="scale(-1)" x="-308.5" y="-218.5" width="105" height="15" ry="7.5" stop-color="#ffffff"/><rect transform="scale(-1)" x="-308.5" y="-248.5" width="105" height="15" ry="7.5" stop-color="#ffffff"/><rect transform="scale(-1)" x="-308.5" y="-278.5" width="105" height="15" ry="7.5" stop-color="#ffffff"/><rect transform="scale(-1)" x="-308.5" y="-308.5" width="105" height="15" ry="7.5" stop-color="#ffffff"/></g><g transform="translate(-512)"><circle cx="768" cy="768" r="90" stop-color="#ffffff" stroke-width=".97758"/><path d="m728.62 701.01c-1.2211 0.0735-2.4119 0.46523-3.487 1.2514-3.4403 2.5318-6.6512 5.3798-9.7093 8.5444-29.893 30.856-29.893 81.016 0 111.87 29.816 31.093 78.209 31.093 108.1 0 3.211-3.1647 5.8108-6.4875 8.2573-10.048 4.0519-5.9338-2.7522-15.27-9.0977-14.637-21.942 2.1362-53.261-3.5255-70.004-20.931-16.819-17.327-15.469-42.757-13.405-65.385 0.49692-5.3354-5.3651-10.985-10.656-10.666z" fill="#fff" stop-color="#ffffff" stroke-width=".27243"/></g><g transform="translate(1046.6 55.861)"><g transform="translate(-534.57 -55.861)"><circle cx="256" cy="768" r="90" stop-color="#ffffff" stroke-width=".97758"/><path d="m256 688c-3.5935 0-6.4871 2.8936-6.4871 6.4872v30.27c0 3.5935 2.8936 6.4853 6.4871 6.4853s6.4853-2.8918 6.4853-6.4853v-30.27c0-3.5935-2.8918-6.4872-6.4853-6.4872zm-51.984 21.526c-1.658 0-3.3159 0.63578-4.5864 1.9063-2.541 2.541-2.541 6.6318 0 9.1728l21.404 21.404c2.541 2.541 6.6318 2.541 9.1728 0s2.541-6.6318 0-9.1728l-21.403-21.404c-1.2705-1.2705-2.9302-1.9063-4.5883-1.9063zm103.97 0c-1.658 0-3.3159 0.63578-4.5864 1.9063l-21.404 21.404c-2.541 2.541-2.541 6.6318 0 9.1728s6.6318 2.541 9.1728 0l21.404-21.404c2.541-2.541 2.541-6.6318 0-9.1728-1.2705-1.2705-2.9283-1.9063-4.5864-1.9063zm-51.982 27.886a30.588 30.588 0 0 0-30.588 30.588 30.588 30.588 0 0 0 30.588 30.588 30.588 30.588 0 0 0 30.588-30.588 30.588 30.588 0 0 0-30.588-30.588zm-73.515 24.101c-3.5935 0-6.4853 2.8936-6.4853 6.4871s2.8918 6.4871 6.4853 6.4871h30.27c3.5936 0 6.4872-2.8936 6.4872-6.4871s-2.8936-6.4871-6.4872-6.4871zm116.76 0c-3.5935 0-6.4872 2.8936-6.4872 6.4871s2.8936 6.4871 6.4872 6.4871h30.27c3.5935 0 6.4871-2.8936 6.4871-6.4871s-2.8936-6.4871-6.4871-6.4871zm-73.822 30.572c-1.6581 0-3.3159 0.63578-4.5864 1.9063l-21.404 21.404c-2.541 2.541-2.541 6.6318 0 9.1728s6.6336 2.541 9.1746 0l21.403-21.404c2.541-2.541 2.541-6.6318 0-9.1728-1.2705-1.2705-2.9283-1.9063-4.5864-1.9063zm61.156 0c-1.6581 0-3.3159 0.63578-4.5864 1.9063-2.541 2.541-2.541 6.6318 0 9.1728l21.404 21.404c2.541 2.541 6.6318 2.541 9.1728 0s2.541-6.6318 0-9.1728l-21.404-21.404c-1.2705-1.2705-2.9283-1.9063-4.5864-1.9063zm-30.577 12.673c-3.5935 0-6.4871 2.8918-6.4871 6.4853v30.27c0 3.5935 2.8936 6.4871 6.4871 6.4871s6.4853-2.8936 6.4853-6.4871v-30.27c0-3.5935-2.8918-6.4853-6.4853-6.4853z" fill="#fff" stop-color="#ffffff" stroke-width=".73735"/></g></g><circle cx="768" cy="256" r="90" stop-color="#ffffff" stroke-width=".97758"/><path d="m847.03 235.21-84.422 34.969v-28.596l-76.123 31.531a82.5 82.5 0 0 0 80.531 64.668 82.5 82.5 0 0 0 82.5-82.5 82.5 82.5 0 0 0-2.4863-20.072z" fill="#fff" stop-color="#ffffff" stroke-width="1.1901"/></g><path d="m352.42 105.86c-6.6481 0-11.902 1.6032-15.76 4.8086-3.8583 3.146-5.7882 7.5082-5.7882 13.088 0 2.6711 0.44564 4.9579 1.336 6.8573 0.94973 1.8994 2.1677 3.5311 3.6516 4.8963 1.5433 1.3652 3.2939 2.5228 5.2527 3.4725 2.0182 0.89037 4.0954 1.7213 6.2323 2.4929 2.1369 0.71229 4.0366 1.4544 5.6986 2.2261 1.662 0.71228 3.0575 1.513 4.1853 2.4034 1.1872 0.831 2.0766 1.7809 2.6702 2.8493 0.65294 1.0684 0.97961 2.345 0.97961 3.8289 0 2.493-0.91966 4.4229-2.7598 5.7882-1.8401 1.3652-4.7784 2.047-8.8148 2.047-3.8583 0-7.1535-0.44563-9.8839-1.336-2.7305-0.89036-4.8965-1.7798-6.4992-2.6702l-3.2952 9.1712c0.7123 0.4155 1.6622 0.88954 2.8493 1.4238 1.1872 0.47486 2.5826 0.95068 4.1853 1.4256 1.662 0.47486 3.5316 0.86012 5.6091 1.1569 2.1369 0.35615 4.4822 0.53369 7.0346 0.53369 7.5978 0 13.356-1.5127 17.273-4.5399 3.977-3.0866 5.9654-7.4204 5.9654-13 1e-5 -2.9085-0.41545-5.371-1.2465-7.3892-0.83101-2.0775-2.049-3.8583-3.6516-5.3422-1.5433-1.5433-3.4714-2.85-5.7864-3.9185-2.2556-1.1278-4.8389-2.225-7.7474-3.2934-1.662-0.59358-3.2049-1.2186-4.6294-1.8715-1.3652-0.65293-2.5814-1.3649-3.6498-2.1365-1.0091-0.77164-1.8116-1.631-2.4052-2.5807-0.53422-1.0091-0.80053-2.1968-0.80053-3.5621 0-2.2556 0.8309-4.0062 2.4929-5.2527 1.7214-1.2465 4.0951-1.8697 7.1224-1.8697 2.5524 0 5.0167 0.29649 7.391 0.89007 2.4337 0.59358 4.6601 1.4529 6.6782 2.5807l3.4725-9.0816c-1.7214-1.0091-4.0969-1.9288-7.1242-2.7598-2.9679-0.89037-6.3803-1.336-10.239-1.336zm263.99 0.80232c-2.6711 0-5.6095 0.11896-8.8148 0.35639-3.146 0.17807-6.0239 0.56334-8.6357 1.1569v60.812h11.218v-21.724h5.6091c4.5112 0 8.5184-0.38706 12.02-1.1587 3.5021-0.77165 6.4689-1.9576 8.9025-3.5603 2.4337-1.662 4.2748-3.7695 5.5213-6.3218 1.3059-2.6117 1.9592-5.7276 1.9592-9.3484 0-6.9449-2.4039-12.051-7.2119-15.316-4.7486-3.2647-11.605-4.8963-20.568-4.8963zm225.97 1.6906-10.772 1.7819v40.333c0 3.0866 0.2663 5.8474 0.80053 8.2811 0.53422 2.3743 1.4539 4.4214 2.7598 6.1428 1.3059 1.662 3.0582 2.9386 5.2545 3.8289 2.2556 0.89037 5.0448 1.336 8.3688 1.336 2.7304 0 5.1042-0.29649 7.1224-0.89007 2.0182-0.53422 3.6516-1.0686 4.8981-1.6028l-1.7819-8.5479c-0.89036 0.35615-2.1065 0.74142-3.6498 1.1569-1.4839 0.4155-3.2061 0.62502-5.1649 0.62502-2.8492 0-4.866-0.80251-6.0532-2.4052s-1.7819-4.2729-1.7819-8.0124v-18.966h16.562v-8.9921h-16.562zm-225.17 8.0142c2.1369 0 4.1254 0.17754 5.9655 0.53368 1.8994 0.29679 3.531 0.8312 4.8963 1.6028 1.3652 0.77166 2.434 1.8405 3.2057 3.2057s1.1569 3.0572 1.1569 5.0754c0 4.2144-1.4541 7.0924-4.3626 8.6357-2.9085 1.484-7.063 2.2261-12.465 2.2261h-5.4318v-21.013c1.8401-0.17807 4.1854-0.26684 7.0346-0.26684zm-214.85 4.8963c-3.5615 0-6.7679 0.62318-9.6171 1.8697-2.8492 1.2465-5.2815 2.9687-7.2997 5.1649-1.9588 2.1962-3.4733 4.8079-4.5417 7.8352-1.0684 2.9679-1.6028 6.1725-1.6028 9.6153 0 3.5021 0.47583 6.7671 1.4256 9.7944 0.94973 2.9679 2.3736 5.5512 4.2731 7.7474 1.9588 2.1369 4.3929 3.8271 7.3015 5.0736 2.9679 1.1872 6.4406 1.7819 10.418 1.7819 2.5524 0 5.0149-0.23792 7.3892-0.71277 2.4337-0.47486 4.2446-1.0093 5.4318-1.6028l-1.5133-8.9043c-1.3059 0.53422-2.8505 0.97986-4.6312 1.336s-3.5899 0.53548-5.43 0.53548c-4.9267 0-8.4296-1.3369-10.507-4.008-2.0775-2.7305-3.1161-6.4109-3.1161-11.041 0-4.808 1.099-8.5169 3.2952-11.129 2.1962-2.6711 5.4009-4.0062 9.6153-4.0062 1.7807 0 3.4425 0.17754 4.9858 0.53369 1.6027 0.35614 3.0266 0.80177 4.2731 1.336l2.3156-8.8148c-3.9176-1.6027-8.0721-2.4052-12.465-2.4052zm40.601 0c-2.7304 0-5.4025 0.53441-8.0142 1.6028-2.6117 1.0091-4.9269 2.5537-6.9451 4.6312-2.0182 2.0182-3.6498 4.5694-4.8963 7.6561-1.1872 3.0866-1.7819 6.6783-1.7819 10.774 0 3.5021 0.47582 6.737 1.4256 9.7048 0.94973 2.9085 2.4038 5.4616 4.3626 7.6579 1.9588 2.1369 4.4515 3.8271 7.4788 5.0736 3.0272 1.1872 6.5888 1.7819 10.684 1.7819 1.6026 0 3.1757-0.0888 4.719-0.26685 1.5433-0.17807 2.969-0.41598 4.2749-0.71277 1.3652-0.23743 2.5512-0.50552 3.5603-0.80232 1.0684-0.35614 1.8993-0.68103 2.4929-0.97783l-1.4238-8.8148c-1.2465 0.53421-2.9687 1.0384-5.1649 1.5133-2.1369 0.47486-4.5106 0.71278-7.1224 0.71278-4.4518 0-7.8642-1.0102-10.239-3.0284-2.315-2.0775-3.6217-4.9857-3.9185-8.7252h30.717c0.0594-0.59358 0.0895-1.2469 0.0895-1.9592 0.0593-0.77166 0.0895-1.4534 0.0895-2.047 0-7.8946-1.811-13.832-5.4318-17.809-3.5615-3.977-8.5469-5.9655-14.958-5.9655zm102.93 0c-2.7304 0-5.4025 0.53441-8.0142 1.6028-2.6117 1.0091-4.9269 2.5537-6.9451 4.6312-2.0182 2.0182-3.6498 4.5694-4.8963 7.6561-1.1872 3.0866-1.7801 6.6783-1.7801 10.774 0 3.5021 0.47403 6.737 1.4238 9.7048 0.94972 2.9085 2.4038 5.4616 4.3626 7.6579 1.9588 2.1369 4.4515 3.8271 7.4788 5.0736 3.0272 1.1872 6.5888 1.7819 10.684 1.7819 1.6026 0 3.1757-0.0888 4.719-0.26685 1.5433-0.17807 2.969-0.41598 4.2749-0.71277 1.3652-0.23743 2.5512-0.50552 3.5603-0.80232 1.0684-0.35614 1.8993-0.68103 2.4929-0.97783l-1.4238-8.8148c-1.2465 0.53421-2.9687 1.0384-5.1649 1.5133-2.1369 0.47486-4.5106 0.71278-7.1224 0.71278-4.4518 0-7.8642-1.0102-10.239-3.0284-2.315-2.0775-3.6217-4.9857-3.9185-8.7252h30.717c0.0594-0.59358 0.0895-1.2469 0.0895-1.9592 0.0594-0.77166 0.0896-1.4534 0.0896-2.047 0-7.8946-1.811-13.832-5.4318-17.809-3.5615-3.977-8.5469-5.9655-14.958-5.9655zm162.94 0c-2.7305 0-5.4025 0.53441-8.0142 1.6028-2.6118 1.0091-4.9269 2.5537-6.9451 4.6312-2.0182 2.0182-3.6498 4.5694-4.8963 7.6561-1.1872 3.0866-1.7802 6.6783-1.7802 10.774 0 3.5021 0.47403 6.737 1.4238 9.7048 0.94972 2.9085 2.4038 5.4616 4.3626 7.6579 1.9588 2.1369 4.4515 3.8271 7.4788 5.0736 3.0272 1.1872 6.5888 1.7819 10.684 1.7819 1.6027 0 3.1757-0.0888 4.719-0.26685 1.5433-0.17807 2.969-0.41598 4.2749-0.71277 1.3652-0.23743 2.5512-0.50552 3.5603-0.80232 1.0684-0.35614 1.8993-0.68103 2.4929-0.97783l-1.4238-8.8148c-1.2465 0.53421-2.9687 1.0384-5.1649 1.5133-2.1369 0.47486-4.5106 0.71278-7.1224 0.71278-4.4518 0-7.8642-1.0102-10.239-3.0284-2.315-2.0775-3.6217-4.9857-3.9185-8.7252h30.717c0.0593-0.59358 0.0896-1.2469 0.0896-1.9592 0.0593-0.77166 0.0895-1.4534 0.0895-2.047 0-7.8946-1.811-13.832-5.4318-17.809-3.5615-3.977-8.5469-5.9655-14.958-5.9655zm46.744 0c-5.4016 0-9.675 1.2464-12.821 3.7394-3.146 2.4337-4.719 5.7875-4.719 10.061 0 2.1962 0.32669 4.0676 0.97962 5.6109 0.7123 1.484 1.6622 2.7587 2.8493 3.8271 1.1872 1.0684 2.5808 2.0183 4.1835 2.8493 1.662 0.77166 3.473 1.5138 5.4318 2.2261 3.2053 1.1872 5.4903 2.2862 6.8555 3.2952 1.4246 1.0091 2.1365 2.2856 2.1365 3.8289 0 1.662-0.65156 2.848-1.9574 3.5603-1.3059 0.65293-3.3849 0.97962-6.2341 0.97962s-5.4005-0.29651-7.6561-0.89008c-2.1962-0.59357-4.096-1.2168-5.6986-1.8697l-1.8697 8.9921c1.0091 0.4155 2.7597 0.94991 5.2527 1.6028 2.493 0.7123 5.7882 1.0692 9.8839 1.0692 6.1138 0 10.803-1.1274 14.067-3.383 3.324-2.315 4.9858-5.6989 4.9858-10.151 0-2.0775-0.26631-3.8583-0.80053-5.3422s-1.3953-2.7907-2.5825-3.9185c-1.1278-1.1872-2.5819-2.2258-4.3626-3.1162-1.7807-0.94972-3.9485-1.8996-6.5009-2.8493-1.5433-0.53423-2.8482-1.0384-3.9167-1.5133-1.0684-0.53422-1.9295-1.0384-2.5825-1.5133-0.65293-0.53421-1.127-1.0988-1.4238-1.6924-0.23743-0.59358-0.35638-1.2753-0.35638-2.047 0-1.5433 0.68176-2.6707 2.047-3.383 1.3652-0.77165 3.146-1.1587 5.3422-1.1587 2.4337 0 4.5713 0.23792 6.4114 0.71278 1.8401 0.4155 3.3528 0.89133 4.5399 1.4255l1.9592-8.727c-1.2465-0.47487-3.116-0.9489-5.6091-1.4238-2.493-0.53421-5.1047-0.80232-7.8352-0.80232zm44.785 0c-2.7305 0-5.4007 0.53441-8.0124 1.6028-2.6118 1.0091-4.9269 2.5537-6.9451 4.6312-2.0182 2.0182-3.6498 4.5694-4.8963 7.6561-1.1872 3.0866-1.7819 6.6783-1.7819 10.774 0 3.5021 0.47582 6.737 1.4256 9.7048 0.94973 2.9085 2.4038 5.4616 4.3626 7.6579 1.9588 2.1369 4.4515 3.8271 7.4788 5.0736 3.0273 1.1872 6.5888 1.7819 10.684 1.7819 1.6026 0 3.1757-0.0888 4.719-0.26685 1.5433-0.17807 2.9672-0.41598 4.2731-0.71277 1.3652-0.23743 2.553-0.50552 3.5621-0.80232 1.0684-0.35614 1.8993-0.68103 2.4929-0.97783l-1.4238-8.8148c-1.2465 0.53421-2.9687 1.0384-5.1649 1.5133-2.1369 0.47486-4.5106 0.71278-7.1224 0.71278-4.4518 0-7.866-1.0102-10.24-3.0284-2.315-2.0775-3.6199-4.9857-3.9167-8.7252h30.717c0.0593-0.59358 0.0895-1.2469 0.0895-1.9592 0.0594-0.77166 0.0877-1.4534 0.0877-2.047 0-7.8946-1.8092-13.832-5.43-17.809-3.5615-3.977-8.5487-5.9655-14.959-5.9655zm83.962 0c-5.4016 0-9.675 1.2464-12.821 3.7394-3.146 2.4337-4.719 5.7875-4.719 10.061 0 2.1962 0.32667 4.0676 0.97962 5.6109 0.71229 1.484 1.6621 2.7587 2.8493 3.8271s2.5809 2.0183 4.1835 2.8493c1.662 0.77166 3.473 1.5138 5.4318 2.2261 3.2053 1.1872 5.4903 2.2862 6.8555 3.2952 1.4246 1.0091 2.1365 2.2856 2.1365 3.8289 0 1.662-0.65337 2.848-1.9592 3.5603-1.3059 0.65293-3.3831 0.97962-6.2323 0.97962s-5.4005-0.29651-7.6561-0.89008c-2.1962-0.59357-4.096-1.2168-5.6986-1.8697l-1.8697 8.9921c1.0091 0.4155 2.7597 0.94991 5.2527 1.6028 2.493 0.7123 5.7882 1.0692 9.8839 1.0692 6.1139 0 10.803-1.1274 14.067-3.383 3.324-2.315 4.9858-5.6989 4.9858-10.151 0-2.0775-0.26631-3.8583-0.80053-5.3422s-1.3953-2.7907-2.5825-3.9185c-1.1278-1.1872-2.5819-2.2258-4.3626-3.1162-1.7807-0.94972-3.9486-1.8996-6.5009-2.8493-1.5433-0.53423-2.8482-1.0384-3.9167-1.5133-1.0684-0.53422-1.9295-1.0384-2.5825-1.5133-0.65294-0.53421-1.127-1.0988-1.4238-1.6924-0.23743-0.59358-0.3564-1.2753-0.3564-2.047 0-1.5433 0.68176-2.6707 2.047-3.383 1.3652-0.77165 3.146-1.1587 5.3422-1.1587 2.4337 0 4.5713 0.23792 6.4114 0.71278 1.8401 0.4155 3.3528 0.89133 4.5399 1.4255l1.9592-8.727c-1.2465-0.47487-3.116-0.9489-5.6091-1.4238-2.493-0.53421-5.1047-0.80232-7.8352-0.80232zm-390.43 0.17909c-4.0363 0-7.7168 0.26632-11.041 0.80053-3.324 0.53422-6.0245 1.0988-8.102 1.6924v45.052h10.774v-37.573c0.71229-0.11871 1.8095-0.26785 3.2934-0.44592s2.9096-0.26685 4.2749-0.26685c1.8401 0 3.3829 0.26811 4.6294 0.80232 1.3059 0.47487 2.3143 1.2756 3.0266 2.4034 0.77165 1.0684 1.3061 2.4941 1.6028 4.2748 0.35616 1.7214 0.53548 3.827 0.53548 6.3201v24.485h10.772v-26.176c-1e-5 -3.146-0.32669-6.0257-0.97962-8.6375-0.59358-2.6711-1.6606-4.9259-3.2039-6.766-1.484-1.8994-3.5026-3.3535-6.055-4.3626-2.5524-1.0684-5.7286-1.6028-9.5276-1.6028zm178.16 0c-3.7989 0-7.2716 0.35508-10.418 1.0674-3.0866 0.65293-5.6681 1.3667-7.7456 2.1383v44.339h10.772v-37.306c0.53422-0.17807 1.4557-0.3858 2.7616-0.62323 1.3652-0.23743 2.64-0.35639 3.8271-0.35639 2.0775 0 3.8885 0.17934 5.4318 0.53548 1.6027 0.29679 2.849 0.59328 3.7394 0.89007l1.8697-9.0816c-0.53423-0.17808-1.2462-0.3574-2.1365-0.53547-0.89037-0.23743-1.81-0.41497-2.7598-0.53369-0.94972-0.17807-1.8996-0.29703-2.8493-0.35639-0.94973-0.11871-1.7806-0.1773-2.4929-0.1773zm-229 8.8148c1.6027 0 2.968 0.29649 4.0958 0.89007 1.1872 0.53421 2.1672 1.3065 2.9388 2.3156 0.83101 0.94972 1.4542 2.1055 1.8697 3.4708 0.41551 1.3059 0.62323 2.7014 0.62323 4.1853h-20.033c0.17807-1.3652 0.50475-2.7004 0.97961-4.0062 0.47487-1.3059 1.1264-2.4635 1.9574-3.4725 0.89037-1.0091 1.9592-1.8098 3.2057-2.4034 1.2465-0.65294 2.7006-0.97961 4.3626-0.97961zm102.93 0c1.6027 0 2.968 0.29649 4.0958 0.89007 1.1872 0.53421 2.1672 1.3065 2.9389 2.3156 0.83101 0.94972 1.4542 2.1055 1.8697 3.4708 0.4155 1.3059 0.62323 2.7014 0.62323 4.1853h-20.033c0.17808-1.3652 0.50476-2.7004 0.97962-4.0062 0.47486-1.3059 1.1282-2.4635 1.9592-3.4725 0.89036-1.0091 1.9574-1.8098 3.2039-2.4034 1.2465-0.65294 2.7006-0.97961 4.3626-0.97961zm162.94 0c1.6027 0 2.968 0.29649 4.0958 0.89007 1.1872 0.53421 2.1672 1.3065 2.9388 2.3156 0.83101 0.94972 1.4542 2.1055 1.8697 3.4708 0.41551 1.3059 0.62323 2.7014 0.62323 4.1853h-20.033c0.17807-1.3652 0.50475-2.7004 0.97961-4.0062 0.47487-1.3059 1.1282-2.4635 1.9592-3.4725 0.89037-1.0091 1.9574-1.8098 3.2039-2.4034 1.2465-0.65294 2.7006-0.97961 4.3626-0.97961zm91.531 0c1.6027 0 2.968 0.29649 4.0958 0.89007 1.1872 0.53421 2.1672 1.3065 2.9388 2.3156 0.831 0.94972 1.4542 2.1055 1.8697 3.4708 0.41551 1.3059 0.62323 2.7014 0.62323 4.1853h-20.035c0.17807-1.3652 0.50475-2.7004 0.97962-4.0062 0.47486-1.3059 1.1282-2.4635 1.9592-3.4725 0.89037-1.0091 1.9592-1.8098 3.2057-2.4034 1.2465-0.65294 2.7006-0.97961 4.3626-0.97961z" stroke-width=".83472"/></svg>
