<?xml version="1.0" encoding="UTF-8" standalone="no"?>
<svg
   width="24"
   height="24"
   version="1.1"
   viewBox="0 0 24 24"
   id="svg652"
   sodipodi:docname="logo_mini.svg"
   inkscape:version="1.2.2 (732a01da63, 2022-12-09)"
   xmlns:inkscape="http://www.inkscape.org/namespaces/inkscape"
   xmlns:sodipodi="http://sodipodi.sourceforge.net/DTD/sodipodi-0.dtd"
   xmlns="http://www.w3.org/2000/svg"
   xmlns:svg="http://www.w3.org/2000/svg">
  <defs
     id="defs656" />
  <sodipodi:namedview
     id="namedview654"
     pagecolor="#ffffff"
     bordercolor="#666666"
     borderopacity="1.0"
     inkscape:showpageshadow="2"
     inkscape:pageopacity="0.0"
     inkscape:pagecheckerboard="0"
     inkscape:deskcolor="#d1d1d1"
     inkscape:document-units="px"
     showgrid="false"
     inkscape:zoom="41.403919"
     inkscape:cx="7.1490817"
     inkscape:cy="13.83927"
     inkscape:window-width="3840"
     inkscape:window-height="1537"
     inkscape:window-x="-8"
     inkscape:window-y="-8"
     inkscape:window-maximized="1"
     inkscape:current-layer="svg652"
     showguides="true">
    <sodipodi:guide
       position="12,12"
       orientation="0,1"
       id="guide1008"
       inkscape:locked="false"
       inkscape:label=""
       inkscape:color="rgb(0,134,229)" />
  </sodipodi:namedview>
  <path
     id="rect1377-4"
     style="fill:#000000;fill-opacity:1;stroke-width:0.039685;stop-color:#ffffff"
     d="M 3.1210938 -0.013671875 A 3.1213872 3.1213872 0 0 0 0 3.109375 A 3.1213872 3.1213872 0 0 0 3.1210938 6.2304688 A 3.1213872 3.1213872 0 0 0 6.2421875 3.109375 A 3.1213872 3.1213872 0 0 0 3.1210938 -0.013671875 z M 20.878906 -0.013671875 A 3.1213872 3.1213872 0 0 0 17.757812 3.109375 A 3.1213872 3.1213872 0 0 0 20.878906 6.2304688 A 3.1213872 3.1213872 0 0 0 24 3.109375 A 3.1213872 3.1213872 0 0 0 20.878906 -0.013671875 z M 12 1.2871094 C 11.711792 1.2871094 11.480469 1.520386 11.480469 1.8085938 L 11.480469 4.4082031 C 11.480469 4.6964109 11.711792 4.9296875 12 4.9296875 C 12.288208 4.9296875 12.519531 4.6964109 12.519531 4.4082031 L 12.519531 1.8085938 C 12.519531 1.520386 12.288208 1.2871094 12 1.2871094 z M 12 6.0585938 C 8.7257285 6.0585841 6.0722559 8.712056 6.0722656 11.986328 C 6.072713 13.418503 6.5898596 14.803504 7.53125 15.882812 C 7.6259979 16.002479 7.7257308 16.121914 7.8320312 16.244141 C 8.4382615 16.941188 8.7314896 17.37619 9.1035156 18.136719 C 9.216457 18.367602 9.2916937 18.507297 9.359375 18.611328 C 9.393128 18.680158 9.444143 18.740768 9.5078125 18.791016 C 9.5100625 18.792816 9.5114019 18.795075 9.5136719 18.796875 C 9.6247121 18.881885 9.7721784 18.933594 9.9355469 18.933594 L 14.060547 18.933594 C 14.220498 18.933594 14.366328 18.884598 14.476562 18.802734 C 14.483962 18.797434 14.490867 18.791006 14.498047 18.785156 C 14.505647 18.778956 14.514274 18.772165 14.521484 18.765625 C 14.532004 18.755925 14.542364 18.745625 14.552734 18.734375 C 14.566294 18.719955 14.578134 18.705053 14.589844 18.689453 C 14.595444 18.682253 14.601732 18.673866 14.607422 18.666016 C 14.610422 18.661416 14.612334 18.656994 14.615234 18.652344 C 14.688654 18.548018 14.770099 18.395085 14.896484 18.136719 C 15.26851 17.376189 15.561738 16.941188 16.167969 16.244141 C 16.274269 16.121914 16.374002 16.002479 16.46875 15.882812 C 17.410141 14.803505 17.927286 13.418503 17.927734 11.986328 C 17.927744 8.712056 15.274273 6.0585841 12 6.0585938 z M 1.8203125 11.466797 C 1.5321047 11.466797 1.3007812 11.69812 1.3007812 11.986328 C 1.3007812 12.274536 1.5321047 12.507812 1.8203125 12.507812 L 4.421875 12.507812 C 4.7100828 12.507812 4.9414062 12.274536 4.9414062 11.986328 C 4.9414062 11.69812 4.7100828 11.466797 4.421875 11.466797 L 1.8203125 11.466797 z M 19.578125 11.466797 C 19.289917 11.466797 19.058594 11.69812 19.058594 11.986328 C 19.058594 12.274536 19.289917 12.507812 19.578125 12.507812 L 22.179688 12.507812 C 22.467895 12.507812 22.699219 12.274536 22.699219 11.986328 C 22.699219 11.69812 22.467895 11.466797 22.179688 11.466797 L 19.578125 11.466797 z M 3.1210938 17.744141 A 3.1213872 3.1213872 0 0 0 0 20.865234 A 3.1213872 3.1213872 0 0 0 3.1210938 23.986328 A 3.1213872 3.1213872 0 0 0 6.2421875 20.865234 A 3.1213872 3.1213872 0 0 0 3.1210938 17.744141 z M 20.878906 17.744141 A 3.1213872 3.1213872 0 0 0 17.757812 20.865234 A 3.1213872 3.1213872 0 0 0 20.878906 23.986328 A 3.1213872 3.1213872 0 0 0 24 20.865234 A 3.1213872 3.1213872 0 0 0 20.878906 17.744141 z M 10.041016 19.824219 C 9.7528087 19.824219 9.5195312 20.057496 9.5195312 20.345703 C 9.5195312 20.63391 9.7528087 20.865234 10.041016 20.865234 L 11.964844 20.865234 L 12 20.865234 L 12.035156 20.865234 L 13.958984 20.865234 C 14.247191 20.865234 14.480469 20.63391 14.480469 20.345703 C 14.480469 20.057496 14.247191 19.824219 13.958984 19.824219 L 10.041016 19.824219 z M 10.1875 21.767578 C 9.9088995 21.767578 9.6855469 21.990931 9.6855469 22.269531 C 9.6855469 22.548131 9.9088995 22.773438 10.1875 22.773438 L 10.294922 22.773438 C 10.391332 22.77421 10.404702 22.787739 10.425781 22.908203 C 10.507921 23.377648 10.805134 23.757334 11.208984 23.908203 C 11.546886 24.034437 12.326102 24.048725 12.705078 23.935547 C 13.155212 23.801119 13.486626 23.408794 13.574219 22.908203 C 13.595299 22.787742 13.608678 22.774208 13.705078 22.773438 L 13.8125 22.773438 C 14.0911 22.773438 14.314453 22.548131 14.314453 22.269531 C 14.314453 21.990931 14.0911 21.767578 13.8125 21.767578 L 12.080078 21.767578 C 12.045548 21.767559 12.03558 21.767578 12 21.767578 C 11.96442 21.767578 11.954452 21.76756 11.919922 21.767578 L 10.1875 21.767578 z " />
</svg>
