<?xml version="1.0" encoding="UTF-8" standalone="no"?>
<!-- Created with Inkscape (http://www.inkscape.org/) -->

<svg
   version="1.1"
   id="svg2"
   width="1024"
   height="1024"
   viewBox="0 0 1024 1024"
   sodipodi:docname="logo.svg"
   inkscape:version="1.2.2 (732a01da63, 2022-12-09)"
   xml:space="preserve"
   inkscape:export-filename="logo.png"
   inkscape:export-xdpi="96"
   inkscape:export-ydpi="96"
   xmlns:inkscape="http://www.inkscape.org/namespaces/inkscape"
   xmlns:sodipodi="http://sodipodi.sourceforge.net/DTD/sodipodi-0.dtd"
   xmlns="http://www.w3.org/2000/svg"
   xmlns:svg="http://www.w3.org/2000/svg"><defs
     id="defs6" /><sodipodi:namedview
     id="namedview4"
     pagecolor="#ffffff"
     bordercolor="#666666"
     borderopacity="1.0"
     inkscape:showpageshadow="2"
     inkscape:pageopacity="0"
     inkscape:pagecheckerboard="0"
     inkscape:deskcolor="#d1d1d1"
     showgrid="false"
     inkscape:zoom="0.125"
     inkscape:cx="-6044"
     inkscape:cy="2108"
     inkscape:window-width="2862"
     inkscape:window-height="1528"
     inkscape:window-x="962"
     inkscape:window-y="0"
     inkscape:window-maximized="0"
     inkscape:current-layer="g8"
     showguides="true"><sodipodi:guide
       position="512,512"
       orientation="0,1"
       id="guide1414"
       inkscape:locked="false"
       inkscape:label=""
       inkscape:color="rgb(0,134,229)" /><sodipodi:guide
       position="256,512"
       orientation="-1,0"
       id="guide1416"
       inkscape:locked="false"
       inkscape:label=""
       inkscape:color="rgb(0,134,229)" /><sodipodi:guide
       position="512,512"
       orientation="-1,0"
       id="guide1418"
       inkscape:locked="false"
       inkscape:label=""
       inkscape:color="rgb(0,134,229)" /><sodipodi:guide
       position="768,512"
       orientation="-1,0"
       id="guide1420"
       inkscape:locked="false"
       inkscape:label=""
       inkscape:color="rgb(0,134,229)" /><sodipodi:guide
       position="512,768"
       orientation="0,1"
       id="guide1422"
       inkscape:locked="false"
       inkscape:label=""
       inkscape:color="rgb(0,134,229)" /><sodipodi:guide
       position="512,256"
       orientation="0,1"
       id="guide1546"
       inkscape:locked="false"
       inkscape:label=""
       inkscape:color="rgb(0,134,229)" /><sodipodi:guide
       position="1425.5934,165.25978"
       orientation="0,-1"
       id="guide1726"
       inkscape:locked="false" /></sodipodi:namedview><g
     inkscape:groupmode="layer"
     inkscape:label="Image"
     id="g8"><g
       id="g4371"><rect
         style="opacity:1;fill:#000000;fill-opacity:1;stroke-width:1.14425;stop-color:#FFFFFF"
         id="rect1377"
         width="105"
         height="30"
         x="203.5"
         y="497"
         ry="15" /><rect
         style="fill:#000000;fill-opacity:1;stroke-width:1.14425;stop-color:#FFFFFF"
         id="rect1377-9"
         width="105"
         height="30"
         x="203.5"
         y="-527"
         ry="15"
         transform="rotate(90)" /><rect
         style="fill:#000000;fill-opacity:1;stroke-width:1.14425;stop-color:#FFFFFF"
         id="rect1377-3"
         width="105"
         height="30"
         x="715.5"
         y="497"
         ry="15" /><path
         id="path1627"
         style="fill:#000000;stroke-width:1.01793"
         d="M 512 341.05859 C 417.59173 341.05831 341.05831 417.59173 341.05859 512 C 341.07149 553.29441 356.03233 593.18849 383.17578 624.30859 C 385.90768 627.75897 388.78656 631.23556 391.85156 634.75977 C 409.33122 654.85799 417.73418 667.37803 428.46094 689.30664 C 431.71742 695.96376 433.89032 699.99653 435.8418 702.99609 C 436.81502 704.98061 438.28725 706.74062 440.12305 708.18945 C 440.18784 708.24096 440.25887 708.29368 440.32422 708.34375 C 443.52588 710.79488 447.78954 712.30078 452.5 712.30078 L 571.42578 712.30078 C 576.03771 712.30078 580.21999 710.85646 583.39844 708.49609 C 583.61161 708.34203 583.83977 708.17264 584.04688 708.00391 C 584.26596 707.82451 584.46991 707.63384 584.67773 707.44531 C 584.98103 707.16658 585.29066 706.87893 585.58984 706.55469 C 585.98091 706.13901 586.34425 705.70543 586.68164 705.25586 C 586.84326 705.04724 587.01964 704.79078 587.18359 704.56445 C 587.27107 704.43251 587.34884 704.29647 587.43164 704.16211 C 589.54871 701.15404 591.89495 696.75622 595.53906 689.30664 C 606.26582 667.37801 614.66878 654.858 632.14844 634.75977 C 635.21343 631.23555 638.09232 627.75899 640.82422 624.30859 C 667.96767 593.18851 682.92848 553.29441 682.94141 512 C 682.94169 417.59173 606.40827 341.05831 512 341.05859 z M 455.5 737.99805 C 447.19003 737.99805 440.5 744.68808 440.5 752.99805 C 440.5 761.30802 447.19003 767.99805 455.5 767.99805 L 510.96289 767.99805 C 511.51064 767.99804 511.44198 768.00195 512 768.00195 C 512.55802 768.00195 512.48936 767.99805 513.03711 767.99805 L 568.5 767.99805 C 576.80997 767.99805 583.5 761.30802 583.5 752.99805 C 583.5 744.68808 576.80997 737.99805 568.5 737.99805 L 455.5 737.99805 z M 512 793.98438 C 510.97421 793.98438 510.70648 793.99945 509.71094 794 L 459.75 794 C 451.71702 794 445.25 800.46702 445.25 808.5 C 445.25 816.53298 451.71702 823 459.75 823 L 462.82422 823 C 465.6039 823.02229 465.98207 823.40953 466.58984 826.88281 C 468.95824 840.41847 477.55681 851.39409 489.20117 855.74414 C 498.94403 859.3839 521.37948 859.79258 532.30664 856.5293 C 545.2855 852.6533 554.88456 841.31652 557.41016 826.88281 C 558.01793 823.40953 558.3961 823.02224 561.17578 823 L 564.25 823 C 572.28298 823 578.75 816.53298 578.75 808.5 C 578.75 800.46702 572.28298 794 564.25 794 L 514.28906 794 C 513.29352 793.99945 513.02579 793.98437 512 793.98438 z " /></g><g
       id="g2882"><circle
         style="fill:#000000;fill-opacity:1;stroke-width:0.977585;stop-color:#FFFFFF"
         id="path1492-0"
         cx="256"
         cy="256"
         r="90" /><g
         id="g2874"><rect
           style="fill:#FFFFFF;fill-opacity:1;stroke-width:0.809106;stop-color:#FFFFFF"
           id="rect1377-9-3"
           width="105"
           height="15"
           x="-308.5"
           y="-218.5"
           ry="7.5"
           transform="scale(-1)" /><rect
           style="fill:#FFFFFF;fill-opacity:1;stroke-width:0.809106;stop-color:#FFFFFF"
           id="rect1377-9-3-7"
           width="105"
           height="15"
           x="-308.5"
           y="-248.5"
           ry="7.5"
           transform="scale(-1)" /><rect
           style="fill:#FFFFFF;fill-opacity:1;stroke-width:0.809106;stop-color:#FFFFFF"
           id="rect1377-9-3-7-0"
           width="105"
           height="15"
           x="-308.5"
           y="-278.5"
           ry="7.5"
           transform="scale(-1)" /><rect
           style="fill:#FFFFFF;fill-opacity:1;stroke-width:0.809106;stop-color:#FFFFFF"
           id="rect1377-9-3-7-0-7"
           width="105"
           height="15"
           x="-308.5"
           y="-308.5"
           ry="7.5"
           transform="scale(-1)" /></g></g><g
       id="g3182"
       transform="translate(-512)"><circle
         style="fill:#000000;fill-opacity:1;stroke-width:0.977585;stop-color:#FFFFFF"
         id="path1492-9"
         cx="768"
         cy="768"
         r="90" /><path
         id="rect3034"
         style="opacity:1;fill:#FFFFFF;fill-opacity:1;stroke-width:0.272432;stop-color:#FFFFFF"
         d="m 728.61567,701.01287 c -1.22108,0.0735 -2.41192,0.46523 -3.48702,1.25145 -3.44027,2.53175 -6.65122,5.37977 -9.70928,8.54445 -29.89251,30.85562 -29.89251,81.01594 0,111.87155 29.81616,31.09291 78.20949,31.09291 108.10209,0 3.21095,-3.16468 5.81084,-6.48748 8.25729,-10.04778 4.05188,-5.93375 -2.75221,-15.27013 -9.09766,-14.63718 -21.94164,2.13616 -53.26143,-3.52549 -70.0044,-20.93126 -16.81932,-17.32655 -15.46884,-42.75748 -13.4046,-65.38495 0.49692,-5.33545 -5.36508,-10.98468 -10.65642,-10.66628 z"
         sodipodi:nodetypes="sccccccccs" /></g><g
       id="g4436"
       transform="translate(1046.5727,55.861435)"><g
         id="g10971"
         transform="translate(-534.57272,-55.861435)"><circle
           style="fill:#000000;fill-opacity:1;stroke-width:0.977585;stop-color:#FFFFFF"
           id="path1492-4"
           cx="256"
           cy="768"
           r="90" /><path
           id="path3178-3"
           style="fill:#FFFFFF;fill-opacity:1;stroke-width:0.737354;stop-color:#FFFFFF"
           d="m 256.00001,688 c -3.59349,0 -6.48713,2.89362 -6.48713,6.48715 v 30.27018 c 0,3.59354 2.89364,6.48533 6.48713,6.48533 3.59352,0 6.48531,-2.89179 6.48531,-6.48533 v -30.27018 c 0,-3.59353 -2.89179,-6.48715 -6.48531,-6.48715 z m -51.98351,21.52573 c -1.65801,0 -3.31586,0.63578 -4.58635,1.90626 -2.54103,2.54098 -2.54103,6.6318 0,9.17278 l 21.40442,21.40443 c 2.54099,2.54099 6.6318,2.54099 9.17279,0 2.54102,-2.54102 2.54102,-6.6318 0,-9.17282 l -21.40259,-21.40439 c -1.27048,-1.27048 -2.93018,-1.90626 -4.58827,-1.90626 z m 103.96512,0 c -1.65805,0 -3.31589,0.63578 -4.58637,1.90626 l -21.40444,21.40439 c -2.54098,2.54102 -2.54098,6.6318 0,9.17282 2.54102,2.54099 6.6318,2.54099 9.17282,0 l 21.4044,-21.40443 c 2.54098,-2.54098 2.54098,-6.6318 0,-9.17278 -1.27049,-1.27048 -2.92833,-1.90626 -4.58641,-1.90626 z m -51.98161,27.88603 a 30.588237,30.588236 0 0 0 -30.58823,30.58825 30.588237,30.588236 0 0 0 30.58823,30.58824 30.588237,30.588236 0 0 0 30.58824,-30.58824 30.588237,30.588236 0 0 0 -30.58824,-30.58825 z m -73.51471,24.10113 c -3.59351,0 -6.4853,2.8936 -6.4853,6.48712 0,3.59349 2.89179,6.48713 6.4853,6.48713 h 30.27019 c 3.59356,0 6.48716,-2.89364 6.48716,-6.48713 0,-3.59352 -2.8936,-6.48712 -6.48716,-6.48712 z m 116.75738,0 c -3.59353,0 -6.48717,2.8936 -6.48717,6.48712 0,3.59349 2.89364,6.48713 6.48717,6.48713 h 30.27019 c 3.59352,0 6.48713,-2.89364 6.48713,-6.48713 0,-3.59352 -2.89361,-6.48712 -6.48713,-6.48712 z m -73.82171,30.57166 c -1.65806,0 -3.31592,0.63578 -4.5864,1.90627 l -21.40442,21.4044 c -2.54103,2.54101 -2.54103,6.63179 0,9.17281 2.541,2.54098 6.63359,2.54098 9.17462,0 l 21.40259,-21.40443 c 2.54102,-2.54098 2.54102,-6.6318 0,-9.17278 -1.27051,-1.27049 -2.92834,-1.90627 -4.58639,-1.90627 z m 61.15625,0 c -1.65808,0 -3.31592,0.63578 -4.58641,1.90627 -2.54098,2.54098 -2.54098,6.6318 0,9.17278 l 21.40444,21.40443 c 2.54098,2.54098 6.63179,2.54098 9.17278,0 2.54098,-2.54102 2.54098,-6.6318 0,-9.17281 l -21.4044,-21.4044 c -1.27053,-1.27049 -2.92833,-1.90627 -4.58641,-1.90627 z m -30.57721,12.67281 c -3.59349,0 -6.48713,2.89176 -6.48713,6.48529 v 30.27022 c 0,3.59352 2.89364,6.48713 6.48713,6.48713 3.59352,0 6.48531,-2.89361 6.48531,-6.48713 v -30.27022 c 0,-3.59353 -2.89179,-6.48529 -6.48531,-6.48529 z" /></g></g><g
       id="g10963"><circle
         style="fill:#000000;fill-opacity:1;stroke-width:0.977585;stop-color:#FFFFFF"
         id="path1492"
         cx="768"
         cy="256"
         r="90" /><path
         id="rect8300"
         style="opacity:1;fill:#FFFFFF;stroke-width:1.19007;stop-color:#FFFFFF"
         d="m 847.0293,235.21343 -84.4219,34.96875 v -28.5957 l -76.123,31.53125 a 82.500001,82.500001 0 0 0 80.5312,64.66797 82.500001,82.500001 0 0 0 82.5,-82.5 82.500001,82.500001 0 0 0 -2.4863,-20.07227 z" /></g></g></svg>
