<?xml version="1.0" encoding="UTF-8" standalone="no"?>
<!-- Created with Inkscape (http://www.inkscape.org/) -->

<svg
   width="600"
   height="600"
   viewBox="0 0 600 600"
   version="1.1"
   id="svg5"
   inkscape:version="1.2.2 (732a01da63, 2022-12-09)"
   sodipodi:docname="Relax.svg"
   xmlns:inkscape="http://www.inkscape.org/namespaces/inkscape"
   xmlns:sodipodi="http://sodipodi.sourceforge.net/DTD/sodipodi-0.dtd"
   xmlns:xlink="http://www.w3.org/1999/xlink"
   xmlns="http://www.w3.org/2000/svg"
   xmlns:svg="http://www.w3.org/2000/svg">
  <sodipodi:namedview
     id="namedview7"
     pagecolor="#ffffff"
     bordercolor="#666666"
     borderopacity="1.0"
     inkscape:showpageshadow="2"
     inkscape:pageopacity="0.0"
     inkscape:pagecheckerboard="0"
     inkscape:deskcolor="#d1d1d1"
     inkscape:document-units="px"
     showgrid="false"
     showguides="true"
     inkscape:zoom="1.2938725"
     inkscape:cx="549.51319"
     inkscape:cy="438.99225"
     inkscape:window-width="1920"
     inkscape:window-height="1537"
     inkscape:window-x="0"
     inkscape:window-y="0"
     inkscape:window-maximized="0"
     inkscape:current-layer="layer1">
    <sodipodi:guide
       position="280,-115.68104"
       orientation="-1,0"
       id="guide11431"
       inkscape:locked="false"
       inkscape:label=""
       inkscape:color="rgb(0,134,229)" />
  </sodipodi:namedview>
  <defs
     id="defs2">
    <linearGradient
       inkscape:collect="always"
       id="linearGradient817">
      <stop
         style="stop-color:#ffe26c;stop-opacity:1;"
         offset="0"
         id="stop813" />
      <stop
         style="stop-color:#fcaa2f;stop-opacity:1;"
         offset="1"
         id="stop815" />
    </linearGradient>
    <linearGradient
       inkscape:collect="always"
       xlink:href="#linearGradient817"
       id="linearGradient819"
       x1="462.96902"
       y1="114.43389"
       x2="126.11322"
       y2="481.38037"
       gradientUnits="userSpaceOnUse"
       gradientTransform="matrix(1.1881896,0,0,1.4407969,-14.285714,-94.488187)" />
  </defs>
  <g
     inkscape:label="Layer 1"
     inkscape:groupmode="layer"
     id="layer1">
    <rect
       style="fill:url(#linearGradient819);fill-opacity:1;stroke:none;stroke-width:1.27177;stop-color:#000000"
       id="rect788"
       width="600"
       height="600"
       x="0"
       y="0" />
    <path
       d="m 54.24228,525 a 225,225 0 0 1 -225,-225 225,225 0 0 1 225,-225 225,225 0 0 1 225,225 225,225 0 0 1 -225,225 m 0,-45 a 180,180 0 0 0 180,-180 180,180 0 0 0 -180,-180 90,90 0 0 1 90,90 90,90 0 0 1 -90,90 90,90 0 0 0 -90,90 90,90 0 0 0 90,90 m 0,-56.25 a 33.75,33.75 0 0 1 -33.75,-33.75 33.75,33.75 0 0 1 33.75,-33.75 33.75,33.75 0 0 1 33.75,33.75 33.75,33.75 0 0 1 -33.75,33.75 m 0,-180 a 33.75,33.75 0 0 0 33.75,-33.75 33.75,33.75 0 0 0 -33.75,-33.75 33.75,33.75 0 0 0 -33.75,33.75 33.75,33.75 0 0 0 33.75,33.75 z"
       id="path4138"
       style="fill:#ffffff;fill-opacity:0.466667;stroke:none;stroke-width:22.5" />
  </g>
</svg>
